<svg id="interface_essential_by_mad-lab_studio" data-name="interface essential by mad-lab studio" xmlns="http://www.w3.org/2000/svg" viewBox="0 0 24 24"><title>dashboard alt 1</title><path d="M20,18H4a3,3,0,0,1-3-3V6A3,3,0,0,1,4,3H20a3,3,0,0,1,3,3v9A3,3,0,0,1,20,18ZM4,5A1,1,0,0,0,3,6v9a1,1,0,0,0,1,1H20a1,1,0,0,0,1-1V6a1,1,0,0,0-1-1Z"/><path d="M15,21H9a1,1,0,0,1,0-2h6a1,1,0,0,1,0,2Z"/><path d="M6,14a1,1,0,0,1-1-1V11a1,1,0,0,1,2,0v2A1,1,0,0,1,6,14Z"/><path d="M10,14a1,1,0,0,1-1-1V10a1,1,0,0,1,2,0v3A1,1,0,0,1,10,14Z"/><path d="M14,14a1,1,0,0,1-1-1V9a1,1,0,0,1,2,0v4A1,1,0,0,1,14,14Z"/><path d="M18,14a1,1,0,0,1-1-1V8a1,1,0,0,1,2,0v5A1,1,0,0,1,18,14Z"/></svg>