<svg id="interface_essential_by_mad-lab_studio" data-name="interface essential by mad-lab studio" xmlns="http://www.w3.org/2000/svg" viewBox="0 0 24 24"><title>battery 50</title><path d="M19,19H3a3,3,0,0,1-3-3V8A3,3,0,0,1,3,5H19a3,3,0,0,1,3,3v.17A3,3,0,0,1,24,11v2a3,3,0,0,1-2,2.83V16A3,3,0,0,1,19,19ZM3,7A1,1,0,0,0,2,8v8a1,1,0,0,0,1,1H19a1,1,0,0,0,1-1V15a1,1,0,0,1,1-1,1,1,0,0,0,1-1V11a1,1,0,0,0-1-1,1,1,0,0,1-1-1V8a1,1,0,0,0-1-1Z"/><path d="M5,16a1,1,0,0,1-1-1V9A1,1,0,0,1,6,9v6A1,1,0,0,1,5,16Z"/><path d="M9,16a1,1,0,0,1-1-1V9a1,1,0,0,1,2,0v6A1,1,0,0,1,9,16Z"/></svg>