<svg id="interface_essential_by_mad-lab_studio" data-name="interface essential by mad-lab studio" xmlns="http://www.w3.org/2000/svg" viewBox="0 0 24 24"><title>Lock alt 3 - lock</title><path d="M19,24H5a1,1,0,0,1-1-1V11a1,1,0,0,1,1-1H19a1,1,0,0,1,0,2H6V22H19a1,1,0,0,1,0,2Z"/><path d="M16,12a1,1,0,0,1-1-1V5A3,3,0,0,0,9,5v6a1,1,0,0,1-2,0V5A5,5,0,0,1,17,5v6A1,1,0,0,1,16,12Z"/><path d="M19,15H15a1,1,0,0,1,0-2h4a1,1,0,0,1,0,2Z"/><path d="M19,18H15a1,1,0,0,1,0-2h4a1,1,0,0,1,0,2Z"/><path d="M19,21H15a1,1,0,0,1,0-2h4a1,1,0,0,1,0,2Z"/></svg>