<svg id="interface_essential_by_mad-lab_studio" data-name="interface essential by mad-lab studio" xmlns="http://www.w3.org/2000/svg" viewBox="0 0 24 24"><title>Translate</title><path d="M21,8H16V5.41l3.71-3.7A1,1,0,0,0,19.92.62,1,1,0,0,0,19,0H3A3,3,0,0,0,0,3V13a3,3,0,0,0,3,3H8v2.59l-3.71,3.7a1,1,0,0,0-.21,1.09A1,1,0,0,0,5,24H21a3,3,0,0,0,3-3V11A3,3,0,0,0,21,8ZM3,14a1,1,0,0,1-1-1V3A1,1,0,0,1,3,2H16.59l-2.3,2.29A1,1,0,0,0,14,5V8H11a3,3,0,0,0-.42,0L8.94,3.65l0,0a.71.71,0,0,0-.12-.18.71.71,0,0,0-.1-.14.76.76,0,0,0-.14-.11,1.08,1.08,0,0,0-.18-.11l0,0L8.2,3A1.2,1.2,0,0,0,8,3a1.38,1.38,0,0,0-.2,0l-.15,0,0,0a.71.71,0,0,0-.17.11.58.58,0,0,0-.15.11.71.71,0,0,0-.1.14.71.71,0,0,0-.12.18l0,0-3,8a1,1,0,0,0,.59,1.29A1,1,0,0,0,5,13a1,1,0,0,0,.94-.65L6.83,10A1,1,0,0,0,7,10H8.18A3,3,0,0,0,8,11v3ZM8.43,8H7.57L8,6.85ZM22,21a1,1,0,0,1-1,1H7.41l2.3-2.29A1,1,0,0,0,10,19V11a1,1,0,0,1,1-1H21a1,1,0,0,1,1,1Z"/><path d="M19,13H17V12a1,1,0,0,0-2,0v1H13a1,1,0,0,0,0,2h.14a4,4,0,0,0,1.28,2A3.92,3.92,0,0,0,13,20a1,1,0,0,0,1,1h0a1,1,0,0,0,1-1,2.15,2.15,0,0,1,1-1.73A2.14,2.14,0,0,1,17,20a1,1,0,0,0,1,1h0a1,1,0,0,0,1-1,3.89,3.89,0,0,0-1.42-3,4,4,0,0,0,1.28-2H19a1,1,0,0,0,0-2Zm-3,2.73a3.1,3.1,0,0,1-.69-.73h1.37A3.26,3.26,0,0,1,16,15.73Z"/></svg>