<svg id="interface_essential_by_mad-lab_studio" data-name="interface essential by mad-lab studio" xmlns="http://www.w3.org/2000/svg" viewBox="0 0 24 24"><title>voice alt 2</title><path d="M12,17a1,1,0,0,1-1-1V8a1,1,0,0,1,2,0v8A1,1,0,0,1,12,17Z"/><path d="M9,22a1,1,0,0,1-1-1V3a1,1,0,0,1,2,0V21A1,1,0,0,1,9,22Z"/><path d="M6,19a1,1,0,0,1-1-1V6A1,1,0,0,1,7,6V18A1,1,0,0,1,6,19Z"/><path d="M3,17a1,1,0,0,1-1-1V8A1,1,0,0,1,4,8v8A1,1,0,0,1,3,17Z"/><path d="M15,22a1,1,0,0,1-1-1V3a1,1,0,0,1,2,0V21A1,1,0,0,1,15,22Z"/><path d="M18,19a1,1,0,0,1-1-1V6a1,1,0,0,1,2,0V18A1,1,0,0,1,18,19Z"/><path d="M21,17a1,1,0,0,1-1-1V8a1,1,0,0,1,2,0v8A1,1,0,0,1,21,17Z"/></svg>