<svg id="interface_essential_by_mad-lab_studio" data-name="interface essential by mad-lab studio" xmlns="http://www.w3.org/2000/svg" viewBox="0 0 24 24"><title>Wifi signal alt 3</title><path d="M12,21a3,3,0,1,1,3-3A3,3,0,0,1,12,21Zm0-4a1,1,0,1,0,1,1A1,1,0,0,0,12,17Z"/><path d="M15.54,15.46a1,1,0,0,1-.71-.29,4.1,4.1,0,0,0-5.66,0,1,1,0,0,1-1.41-1.41,6,6,0,0,1,8.48,0,1,1,0,0,1,0,1.41A1,1,0,0,1,15.54,15.46Z"/><path d="M17.66,13.34a1,1,0,0,1-.71-.29,7,7,0,0,0-9.9,0,1,1,0,0,1-1.41-1.41,9,9,0,0,1,12.72,0,1,1,0,0,1,0,1.41A1,1,0,0,1,17.66,13.34Z"/><path d="M21.9,9.1a1,1,0,0,1-.71-.29,13,13,0,0,0-18.38,0A1,1,0,0,1,1.39,7.39a15,15,0,0,1,21.22,0,1,1,0,0,1,0,1.42A1,1,0,0,1,21.9,9.1Z"/><path d="M19.78,11.22a1,1,0,0,1-.71-.29,10,10,0,0,0-14.14,0A1,1,0,0,1,3.51,9.51a12,12,0,0,1,17,0,1,1,0,0,1,0,1.42A1,1,0,0,1,19.78,11.22Z"/></svg>